<svg width="32" height="32" viewBox="0 0 100 100" fill="none" xmlns="http://www.w3.org/2000/svg">
  <rect width="100" height="100" rx="20" fill="#1F7A63"/>
  <path d="M50 80C66.5685 80 80 66.5685 80 50C80 33.4315 66.5685 20 50 20C33.4315 20 20 33.4315 20 50C20 66.5685 33.4315 80 50 80Z" stroke="#D4AF37" stroke-width="4" stroke-dasharray="8 4"/>
  <path d="M50 70C61.0457 70 70 61.0457 70 50C70 41.6575 64.8872 34.5054 57.5 31.5C59.0838 34.4005 60 37.6627 60 41.1111C60 52.1568 51.0457 61.1111 40 61.1111C36.5516 61.1111 33.2894 60.1949 30.3889 58.6111C33.3945 66.0028 40.5466 71.1111 48.9348 71.1111C49.2882 71.1111 49.6429 71.0739 50 70Z" fill="#D4AF37"/>
  <path d="M38 35C38 35 45 35 45 42C45 35 52 35 52 35C52 35 45 35 45 28C45 35 38 35 38 35Z" fill="#F5E6CA"/>
</svg>
